<svg width="31" height="32" viewBox="0 0 31 32" fill="none" xmlns="http://www.w3.org/2000/svg">
<g filter="url(#filter0_d)">
<path d="M10.6571 0C6.98565 0 4 3.12481 4 6.96524V17.0365C4 20.8769 6.98565 24 10.6571 24H20.3429C24.0143 24 27 20.8769 27 17.0365V6.96524C27 3.12481 24.0143 0 20.3429 0H10.6571ZM10.6571 2.06322H20.3429C22.9559 2.06322 25.0292 4.23197 25.0292 6.96524V17.0365C25.0292 19.7698 22.9559 21.9368 20.3429 21.9368H10.6571C8.04408 21.9368 5.97241 19.7698 5.97241 17.0365V6.96524C5.97241 4.23197 8.04408 2.06322 10.6571 2.06322ZM21.6727 4.12641C20.9107 4.12641 20.2934 4.77212 20.2934 5.56909C20.2934 6.36609 20.9107 7.01178 21.6727 7.01178C22.4346 7.01178 23.0519 6.36609 23.0519 5.56909C23.0519 4.77212 22.4346 4.12641 21.6727 4.12641ZM15.5 5.82073C12.2489 5.82073 9.59264 8.5993 9.59264 12C9.59264 15.4007 12.2489 18.1793 15.5 18.1793C18.7511 18.1793 21.409 15.4007 21.409 12C21.409 8.5993 18.7511 5.82073 15.5 5.82073ZM15.5 7.88395C17.6853 7.88395 19.4366 9.71415 19.4366 12C19.4366 14.2859 17.6853 16.1161 15.5 16.1161C13.3147 16.1161 11.565 14.2859 11.565 12C11.565 9.71415 13.3147 7.88395 15.5 7.88395Z" fill="#575757"/>
</g>
<defs>
<filter id="filter0_d" x="0" y="0" width="31" height="32" filterUnits="userSpaceOnUse" color-interpolation-filters="sRGB">
<feFlood flood-opacity="0" result="BackgroundImageFix"/>
<feColorMatrix in="SourceAlpha" type="matrix" values="0 0 0 0 0 0 0 0 0 0 0 0 0 0 0 0 0 0 127 0"/>
<feOffset dy="4"/>
<feGaussianBlur stdDeviation="2"/>
<feColorMatrix type="matrix" values="0 0 0 0 0 0 0 0 0 0 0 0 0 0 0 0 0 0 0.25 0"/>
<feBlend mode="normal" in2="BackgroundImageFix" result="effect1_dropShadow"/>
<feBlend mode="normal" in="SourceGraphic" in2="effect1_dropShadow" result="shape"/>
</filter>
</defs>
</svg>
