<svg width="30" height="26" viewBox="0 0 30 26" fill="none" xmlns="http://www.w3.org/2000/svg">
<g filter="url(#filter0_d)">
<path d="M26 2.13046C25.191 2.49194 24.321 2.73626 23.4081 2.84633C24.3398 2.28369 25.0552 1.39321 25.3922 0.332343C24.5202 0.853289 23.5546 1.23115 22.526 1.43483C21.7032 0.551897 20.5301 0 19.232 0C16.7393 0 14.7189 2.03437 14.7189 4.54398C14.7189 4.90027 14.7584 5.24719 14.8357 5.57956C11.0846 5.39031 7.75901 3.58068 5.53295 0.831733C5.14443 1.50256 4.92189 2.28304 4.92189 3.11596C4.92189 4.6927 5.71835 6.08333 6.92973 6.89853C6.18992 6.87525 5.49391 6.67074 4.88538 6.33014C4.88451 6.34929 4.8845 6.36818 4.8845 6.38718C4.8845 8.58925 6.44044 10.4254 8.50492 10.8432C8.12653 10.947 7.7279 11.002 7.31624 11.002C7.02512 11.002 6.74286 10.9742 6.46681 10.921C7.04153 12.7262 8.70801 14.0402 10.6833 14.0769C9.13742 15.2959 7.19166 16.022 5.07697 16.022C4.71292 16.022 4.35337 16.0004 4 15.9587C5.99818 17.248 8.37022 18 10.9193 18C19.2207 18 23.7597 11.076 23.7597 5.07064C23.7597 4.87371 23.7552 4.67813 23.747 4.48326C24.6285 3.84206 25.3936 3.04194 25.999 2.13049" fill="#575757"/>
</g>
<defs>
<filter id="filter0_d" x="0" y="0" width="30" height="26" filterUnits="userSpaceOnUse" color-interpolation-filters="sRGB">
<feFlood flood-opacity="0" result="BackgroundImageFix"/>
<feColorMatrix in="SourceAlpha" type="matrix" values="0 0 0 0 0 0 0 0 0 0 0 0 0 0 0 0 0 0 127 0"/>
<feOffset dy="4"/>
<feGaussianBlur stdDeviation="2"/>
<feColorMatrix type="matrix" values="0 0 0 0 0 0 0 0 0 0 0 0 0 0 0 0 0 0 0.25 0"/>
<feBlend mode="normal" in2="BackgroundImageFix" result="effect1_dropShadow"/>
<feBlend mode="normal" in="SourceGraphic" in2="effect1_dropShadow" result="shape"/>
</filter>
</defs>
</svg>
